<svg xmlns="http://www.w3.org/2000/svg" viewBox="0 0 200 200" width="200" height="200" role="img" aria-label="D.R. Global">
  <defs>
    <linearGradient id="goldGrad" x1="0%" y1="0%" x2="100%" y2="100%">
      <stop offset="0%" stop-color="#c9a84c"/><stop offset="50%" stop-color="#e8c96e"/><stop offset="100%" stop-color="#b8973a"/>
    </linearGradient>
    <filter id="shadow" x="-5%" y="-5%" width="110%" height="110%"><feDropShadow dx="0" dy="2" stdDeviation="3" flood-opacity="0.2"/></filter>
  </defs>
  <circle cx="100" cy="100" r="98" fill="#1a1a6e" filter="url(#shadow)"/>
  <path d="M 100 2 A 98 98 0 0 1 198 100 A 98 98 0 0 1 155 183 A 98 98 0 0 1 45 183 A 98 98 0 0 0 100 2 Z" fill="#b8973a" opacity="0.85"/>
  <path d="M 155 17 A 98 98 0 0 1 198 100 A 98 98 0 0 1 170 170 L 162 158 A 84 84 0 0 0 183 100 A 84 84 0 0 0 148 28 Z" fill="url(#goldGrad)"/>
  <circle cx="100" cy="100" r="82" fill="white"/>
  <circle cx="100" cy="100" r="82" fill="none" stroke="#ddd" stroke-width="1"/>
  <path d="M77.78 79.98Q80.17 81.47 81.52 83.86Q82.87 86.26 82.87 89.52Q82.87 93.61 81.26 97.06Q79.65 100.52 76.71 102.95Q73.79 105.40 69.92 106.70Q66.05 108 61.39 108L45.49 108L45.86 106.43Q46.39 106.41 47.46 106.29Q48.52 106.17 49.04 106Q49.87 105.72 50.31 105.14Q50.75 104.56 50.93 103.81L55.85 82.50Q55.95 82.05 56 81.75Q56.04 81.45 56.04 81.29Q56.04 80.39 55.13 79.89Q54.21 79.38 52.15 79.08L52.52 77.51L68.14 77.51Q70.54 77.51 73.09 78.08Q75.63 78.65 77.78 79.98M71.42 100.50Q72.95 97.90 73.68 94.84Q74.41 91.78 74.41 88.45Q74.41 84.28 72.52 81.82Q70.63 79.36 66.83 79.36Q66.07 79.36 65.33 79.39Q64.59 79.43 64.16 79.45L58.90 102.33Q58.81 102.65 58.75 103.11Q58.68 103.57 58.68 103.77Q58.68 105.12 59.68 105.64Q60.68 106.15 62.49 106.15Q65.41 106.15 67.67 104.61Q69.94 103.06 71.42 100.50 M96.20 104.43Q96.20 106.13 94.94 107.38Q93.68 108.62 91.96 108.62Q90.22 108.62 88.97 107.39Q87.71 106.15 87.71 104.43Q87.71 102.71 88.97 101.46Q90.22 100.20 91.96 100.20Q93.68 100.20 94.94 101.47Q96.20 102.74 96.20 104.43 M126.45 83.92Q126.45 81.62 125 80.49Q123.55 79.36 120.80 79.36L119.34 79.36L116.35 92.32L118.43 92.32Q121.94 92.32 124.19 90.11Q126.45 87.91 126.45 83.92M115.92 94.19L113.84 103.14Q113.75 103.51 113.70 103.83Q113.64 104.15 113.64 104.33Q113.64 105.29 114.44 105.74Q115.23 106.20 117.47 106.43L117.10 108L100.62 108L100.99 106.43Q101.53 106.41 102.59 106.27Q103.65 106.13 104.17 105.96Q105.01 105.68 105.45 105.12Q105.89 104.56 106.06 103.81L110.98 82.50Q111.09 82.05 111.13 81.75Q111.17 81.45 111.17 81.29Q111.17 80.39 110.26 79.89Q109.35 79.38 107.28 79.08L107.65 77.51L124.45 77.51Q129.69 77.51 132.32 79Q134.96 80.48 134.96 83.49Q134.96 87.03 132.40 89.43Q129.84 91.82 125.18 92.94Q126.06 94.55 127.40 96.95Q128.75 99.34 130.53 102.46Q131.05 103.38 131.87 104.55Q132.70 105.72 133.62 106.04Q134.08 106.20 134.87 106.30Q135.67 106.41 136.01 106.43L135.62 108L124.49 108Q122.47 103.38 121.04 100.60Q119.62 97.82 117.47 94.19 M149.72 104.43Q149.72 106.13 148.46 107.38Q147.20 108.62 145.49 108.62Q143.75 108.62 142.49 107.39Q141.23 106.15 141.23 104.43Q141.23 102.71 142.49 101.46Q143.75 100.20 145.49 100.20Q147.20 100.20 148.46 101.47Q149.72 102.74 149.72 104.43" fill="#1a1a6e"/>
  <path d="M76.40 131.13L76.40 131.91Q76.14 131.94 75.70 132.01Q75.27 132.08 75 132.21Q74.68 132.37 74.54 132.67Q74.41 132.96 74.41 133.36L74.41 134.54Q74.41 135.83 74.43 136.28Q74.44 136.73 74.46 137.02Q73.04 137.67 71.62 138.01Q70.20 138.35 68.83 138.35Q67.37 138.35 66.02 137.81Q64.67 137.26 63.66 136.25Q62.64 135.23 62.04 133.77Q61.43 132.31 61.43 130.50Q61.43 128.76 62.01 127.27Q62.58 125.79 63.64 124.69Q64.66 123.62 66.07 123.02Q67.48 122.42 69.09 122.42Q70.38 122.42 71.34 122.74Q72.29 123.05 73.02 123.49L73.46 122.76L74.32 122.76L74.42 128.08L73.54 128.08Q73.31 127.20 72.98 126.35Q72.65 125.50 72.12 124.82Q71.60 124.14 70.84 123.74Q70.08 123.34 69.03 123.34Q67.88 123.34 66.98 123.80Q66.07 124.27 65.41 125.20Q64.75 126.09 64.40 127.42Q64.04 128.75 64.04 130.39Q64.04 131.84 64.39 133.13Q64.74 134.41 65.41 135.35Q66.07 136.30 67.07 136.85Q68.07 137.40 69.34 137.40Q70.29 137.40 71.06 137.11Q71.84 136.82 72.17 136.50Q72.25 135.94 72.26 135.37Q72.26 134.80 72.26 134.40L72.26 133.56Q72.26 133.11 72.14 132.76Q72.01 132.41 71.63 132.25Q71.27 132.09 70.67 132.01Q70.06 131.93 69.72 131.91L69.72 131.13 M85.28 137.29L85.28 138L80.12 138L80.12 137.29Q80.36 137.27 80.64 137.24Q80.92 137.22 81.11 137.16Q81.41 137.07 81.56 136.82Q81.71 136.58 81.71 136.20L81.71 123.93Q81.71 123.54 81.54 123.20Q81.37 122.86 81.11 122.67Q80.91 122.54 80.40 122.43Q79.88 122.33 79.57 122.31L79.57 121.62L83.55 121.37L83.71 121.53L83.71 136.07Q83.71 136.44 83.84 136.68Q83.98 136.93 84.30 137.05Q84.53 137.16 84.76 137.22Q84.99 137.27 85.28 137.29 M99.94 132.60Q99.94 133.71 99.58 134.79Q99.23 135.87 98.58 136.63Q97.83 137.48 96.86 137.90Q95.88 138.32 94.67 138.32Q93.66 138.32 92.74 137.94Q91.83 137.56 91.12 136.83Q90.42 136.11 90.01 135.07Q89.59 134.04 89.59 132.75Q89.59 130.27 91.04 128.69Q92.48 127.11 94.83 127.11Q97.05 127.11 98.49 128.61Q99.94 130.10 99.94 132.60M97.72 132.62Q97.72 131.81 97.55 130.92Q97.39 130.02 97.07 129.40Q96.73 128.73 96.17 128.33Q95.61 127.92 94.80 127.92Q93.98 127.92 93.39 128.33Q92.81 128.74 92.44 129.45Q92.10 130.10 91.96 130.94Q91.82 131.78 91.82 132.56Q91.82 133.60 91.98 134.47Q92.15 135.35 92.52 136.03Q92.88 136.72 93.44 137.11Q93.99 137.51 94.80 137.51Q96.15 137.51 96.93 136.21Q97.72 134.91 97.72 132.62 M115.23 132.69Q115.23 135.08 113.72 136.70Q112.22 138.32 110.23 138.32Q109.36 138.32 108.52 138.05Q107.68 137.79 106.94 137.33L106.14 138.57L105.47 138.42Q105.53 137.62 105.55 136.51Q105.57 135.39 105.57 134.35L105.57 123.86Q105.57 123.50 105.40 123.13Q105.24 122.77 104.98 122.61Q104.78 122.47 104.30 122.40Q103.82 122.33 103.53 122.31L103.53 121.62L107.42 121.37L107.57 121.53L107.57 128.51L107.64 128.54Q108.31 127.83 109.10 127.47Q109.89 127.12 110.65 127.12Q112.61 127.12 113.92 128.67Q115.23 130.21 115.23 132.69M112.98 132.77Q112.98 131.97 112.81 131.15Q112.64 130.32 112.27 129.71Q111.91 129.08 111.32 128.70Q110.73 128.31 109.90 128.31Q109.15 128.31 108.58 128.61Q108.02 128.90 107.57 129.41L107.57 135.57Q107.63 135.83 107.82 136.17Q108.01 136.52 108.33 136.83Q108.65 137.13 109.06 137.32Q109.47 137.51 110.06 137.51Q111.37 137.51 112.18 136.24Q112.98 134.97 112.98 132.77 M129.83 137.12L129.83 137.81Q129.33 137.99 128.94 138.10Q128.56 138.21 128.08 138.21Q127.24 138.21 126.74 137.82Q126.24 137.43 126.10 136.68L126.04 136.68Q125.34 137.45 124.54 137.86Q123.74 138.27 122.61 138.27Q121.42 138.27 120.65 137.54Q119.88 136.81 119.88 135.63Q119.88 135.01 120.05 134.53Q120.23 134.05 120.57 133.66Q120.84 133.34 121.28 133.09Q121.72 132.83 122.11 132.68Q122.59 132.50 124.07 132.01Q125.54 131.51 126.06 131.23L126.06 130.17Q126.06 130.03 126 129.63Q125.94 129.23 125.75 128.88Q125.53 128.48 125.14 128.19Q124.75 127.89 124.03 127.89Q123.54 127.89 123.11 128.06Q122.69 128.22 122.51 128.41Q122.51 128.62 122.62 129.04Q122.72 129.46 122.72 129.81Q122.72 130.19 122.38 130.50Q122.04 130.81 121.44 130.81Q120.90 130.81 120.65 130.43Q120.40 130.05 120.40 129.58Q120.40 129.08 120.75 128.63Q121.10 128.18 121.66 127.83Q122.14 127.53 122.83 127.32Q123.51 127.11 124.17 127.11Q125.07 127.11 125.74 127.23Q126.41 127.35 126.96 127.76Q127.51 128.16 127.79 128.84Q128.08 129.52 128.08 130.60Q128.08 132.13 128.05 133.32Q128.01 134.51 128.01 135.92Q128.01 136.33 128.16 136.58Q128.30 136.83 128.61 137Q128.77 137.10 129.12 137.11Q129.46 137.12 129.83 137.12M126.02 135.84L126.08 132.13Q125.17 132.40 124.48 132.66Q123.79 132.92 123.20 133.31Q122.67 133.67 122.35 134.17Q122.04 134.67 122.04 135.36Q122.04 136.25 122.51 136.67Q122.98 137.09 123.70 137.09Q124.46 137.09 125.04 136.72Q125.62 136.35 126.02 135.84 M138.85 137.29L138.85 138L133.68 138L133.68 137.29Q133.93 137.27 134.21 137.24Q134.48 137.22 134.67 137.16Q134.97 137.07 135.12 136.82Q135.27 136.58 135.27 136.20L135.27 123.93Q135.27 123.54 135.10 123.20Q134.94 122.86 134.67 122.67Q134.47 122.54 133.96 122.43Q133.44 122.33 133.13 122.31L133.13 121.62L137.12 121.37L137.27 121.53L137.27 136.07Q137.27 136.44 137.41 136.68Q137.55 136.93 137.86 137.05Q138.09 137.16 138.32 137.22Q138.56 137.27 138.85 137.29" fill="#333333"/>
</svg>