<svg xmlns="http://www.w3.org/2000/svg" viewBox="0 0 1024 1024" role="img" aria-label="DRG Sign">
  <rect width="1024" height="1024" rx="224" fill="#0f2742"/>
  <g transform="translate(512 512) scale(0.82) translate(-512 -520)" fill="#ffffff"><path d="M 526.500 388.605 C 496.250 434.048, 471.208 471.693, 470.850 472.261 C 470.417 472.949, 467.917 472.717, 463.350 471.565 C 453.828 469.162, 437.813 469.306, 427.856 471.884 C 402.371 478.484, 378.600 501.131, 347.734 548.218 C 342.585 556.073, 328.959 576.900, 317.454 594.500 C 305.949 612.100, 287.591 638.375, 276.659 652.890 C 254.001 682.975, 255.036 680.227, 261.349 693.519 C 268.624 708.839, 282.261 718.072, 301.203 720.505 L 305.906 721.108 293.953 756.392 C 287.379 775.797, 282 792.198, 282 792.837 C 282 793.477, 282.338 794, 282.751 794 C 283.165 794, 295.877 782.533, 311.001 768.519 L 338.500 743.037 373.500 743.045 C 412.951 743.053, 442.867 744.198, 463.500 746.489 C 485.999 748.987, 523.074 749.555, 537.612 747.624 C 552.406 745.659, 564.826 742.202, 575.759 737.008 C 586.345 731.978, 591.897 728.160, 600.175 720.220 L 606.850 713.817 607.431 718.158 C 607.921 721.819, 611 751.541, 611 752.612 C 611 752.806, 621.907 753.085, 635.238 753.232 L 659.475 753.500 660.988 762.679 C 661.819 767.727, 662.792 772.144, 663.148 772.493 C 663.504 772.843, 678.579 772.424, 696.648 771.563 C 714.717 770.702, 730.064 769.998, 730.753 769.999 C 731.753 770, 731.956 741.426, 731.753 628.750 L 731.500 487.500 697.007 487.500 L 662.513 487.500 661.126 496.250 L 659.739 505 635.441 505 L 611.144 505 610.510 510.750 C 609.554 519.427, 609.531 519.508, 607.962 519.387 C 607.158 519.325, 584.991 512.169, 558.702 503.484 C 524.610 492.221, 511.045 487.325, 511.397 486.408 C 511.668 485.701, 535.328 449.709, 563.974 406.424 C 592.620 363.140, 615.933 327.625, 615.779 327.504 C 612.638 325.015, 584.171 306.608, 583.059 306.347 C 581.949 306.087, 565.664 329.772, 526.500 388.605 M 434.645 491.584 C 418.483 495.496, 402.136 509.170, 382.744 535 C 374.478 546.010, 370.993 551.228, 342.331 595.500 C 316.179 635.895, 310.077 644.659, 293.827 665.156 C 282.120 679.922, 281.370 681.815, 284.919 687.634 C 291.113 697.793, 304.748 700.684, 317.113 694.461 C 328.957 688.500, 345.861 667.742, 359.723 642.133 C 364.242 633.785, 386.433 599.255, 412.697 559.703 C 437.556 522.268, 457.667 491.270, 457.388 490.819 C 456.580 489.511, 441.053 490.033, 434.645 491.584 M 470.831 546.253 C 442.797 588.287, 436.297 599.369, 435.295 606.837 C 434.581 612.157, 436.885 614.300, 445.077 615.936 C 462.622 619.441, 469.081 621.300, 473.534 624.123 C 476.140 625.776, 478.618 626.762, 479.042 626.314 C 480.438 624.840, 483.836 612.394, 485.103 604.123 L 486.346 596 495.492 596 L 504.638 596 503.802 603.250 C 499.416 641.288, 488.564 665.761, 472.690 673.414 C 463.562 677.815, 456.175 678.460, 431.190 677.041 C 402.519 675.412, 387.658 676.470, 373 681.185 C 352.802 687.681, 344.002 697.683, 344.001 714.146 L 344 721.791 394.750 722.271 C 433.614 722.637, 452.526 723.268, 475.500 724.964 C 526.852 728.755, 547.372 726.447, 571.500 714.167 C 578.611 710.548, 582.311 707.783, 589.130 700.995 C 607.440 682.764, 612.290 664, 612.262 611.500 C 612.249 588.065, 610.383 557.737, 608.145 544.608 L 607.482 540.716 553.229 522.385 L 498.976 504.054 470.831 546.253 M 626.431 533.750 C 630.234 568.600, 632.379 628.421, 631.039 662.228 C 630.071 686.647, 627.851 717.505, 626.432 726.250 L 625.824 730 646.770 730 L 667.715 730 668.399 723.750 C 671.890 691.858, 672.224 685.786, 672.705 645.500 C 673.230 601.551, 672.482 579.385, 669.340 545.750 L 667.682 528 646.743 528 L 625.804 528 626.431 533.750 M 414.343 636.452 C 407.562 639.402, 402.746 654.146, 407.441 657.580 C 409.320 658.954, 426.064 659.669, 450.500 659.418 C 460.606 659.314, 465.424 657.275, 467.025 652.424 C 469.133 646.036, 465.580 640.805, 457.546 638.472 C 453.159 637.198, 429.161 634.984, 420.500 635.054 C 418.850 635.067, 416.080 635.696, 414.343 636.452"/></g>
</svg>